<?xml version="1.0" encoding="UTF-8" standalone="no"?>
<svg width="81px" height="72px" viewBox="0 0 81 72" version="1.1" xmlns="http://www.w3.org/2000/svg" xmlns:xlink="http://www.w3.org/1999/xlink" xmlns:sketch="http://www.bohemiancoding.com/sketch/ns">
    <!-- Generator: Sketch 3.3 (11970) - http://www.bohemiancoding.com/sketch -->
    <title>noun_140595_cc</title>
    <desc>Created with Sketch.</desc>
    <defs></defs>
    <g id="Page-1" stroke="none" stroke-width="1" fill="none" fill-rule="evenodd" sketch:type="MSPage">
        <g id="Desktop-HD" sketch:type="MSArtboardGroup" transform="translate(-165.000000, -2343.000000)" fill="#0B4A91">
            <g id="noun_140595_cc" sketch:type="MSLayerGroup" transform="translate(165.000000, 2343.000000)">
                <path d="M51.3710526,71.1529412 C51.0513158,71.1529412 50.7315789,71.0470588 50.5184211,70.8352941 C50.0921053,70.5176471 49.7723684,70.0941176 49.7723684,69.5647059 L49.4526316,35.7882353 C49.4526316,35.1529412 49.8789474,34.5176471 50.5184211,34.3058824 L78.3355263,23.7176471 C78.8684211,23.5058824 79.4013158,23.6117647 79.8276316,23.9294118 C80.2539474,24.2470588 80.5736842,24.6705882 80.5736842,25.2 L80.8934211,58.9764706 C80.8934211,59.6117647 80.4671053,60.2470588 79.8276316,60.4588235 L52.0105263,71.0470588 C51.7973684,71.1529412 51.5842105,71.1529412 51.3710526,71.1529412 L51.3710526,71.1529412 Z M52.65,36.8470588 L52.9697368,67.2352941 L77.5894737,57.8117647 L77.2697368,27.5294118 L52.65,36.8470588 L52.65,36.8470588 Z" id="Shape" sketch:type="MSShapeGroup"></path>
                <path d="M51.0513158,37.3764706 C50.8381579,37.3764706 50.625,37.3764706 50.4118421,37.2705882 L26.2184211,26.5764706 C25.5789474,26.3647059 25.2592105,25.7294118 25.2592105,25.0941176 C25.2592105,24.4588235 25.6855263,23.9294118 26.325,23.6117647 L53.2894737,13.2352941 C53.7157895,13.1294118 54.1421053,13.1294118 54.4618421,13.2352941 L79.5078947,23.7176471 C80.1473684,23.9294118 80.4671053,24.5647059 80.4671053,25.2 C80.4671053,25.8352941 80.0407895,26.4705882 79.4013158,26.6823529 L51.5842105,37.2705882 C51.4776316,37.3764706 51.2644737,37.3764706 51.0513158,37.3764706 L51.0513158,37.3764706 Z M31.0144737,25.2 L51.0513158,34.0941176 L74.6052632,25.0941176 L53.8223684,16.4117647 L31.0144737,25.2 L31.0144737,25.2 Z" id="Shape" sketch:type="MSShapeGroup"></path>
                <path d="M51.0513158,71.1529412 C50.8381579,71.1529412 50.625,71.1529412 50.4118421,71.0470588 L26.0052632,60.3529412 C25.4723684,60.1411765 25.0460526,59.5058824 25.0460526,58.8705882 L25.3657895,25.0941176 C25.3657895,24.5647059 25.6855263,24.0352941 26.1118421,23.8235294 C26.5381579,23.5058824 27.1776316,23.5058824 27.6039474,23.7176471 L51.9039474,34.3058824 C52.4368421,34.5176471 52.8631579,35.1529412 52.8631579,35.7882353 L52.5434211,69.5647059 C52.5434211,70.0941176 52.2236842,70.6235294 51.7973684,70.8352941 C51.6907895,71.0470588 51.3710526,71.1529412 51.0513158,71.1529412 L51.0513158,71.1529412 Z M28.35,57.9176471 L49.5592105,67.1294118 L49.7723684,36.8470588 L28.5631579,27.6352941 L28.35,57.9176471 L28.35,57.9176471 Z" id="Shape" sketch:type="MSShapeGroup"></path>
                <path d="M64.2671053,31.4470588 C64.0539474,31.4470588 63.8407895,31.4470588 63.6276316,31.3411765 L41.9921053,21.4941176 C41.1394737,21.1764706 40.8197368,20.2235294 41.2460526,19.3764706 C41.5657895,18.5294118 42.525,18.2117647 43.3776316,18.6352941 L65.0131579,28.4823529 C65.8657895,28.8 66.1855263,29.7529412 65.7592105,30.6 C65.4394737,31.1294118 64.8,31.4470588 64.2671053,31.4470588 L64.2671053,31.4470588 Z" id="Shape" sketch:type="MSShapeGroup"></path>
                <path d="M42.0986842,13.0235294 C41.8855263,13.0235294 41.6723684,13.0235294 41.4592105,12.9176471 L22.1684211,3.91764706 C21.4223684,3.49411765 20.9960526,2.64705882 21.4223684,1.8 C21.8486842,1.05882353 22.7013158,0.635294118 23.5539474,1.05882353 L42.8447368,10.0588235 C43.5907895,10.4823529 44.0171053,11.3294118 43.5907895,12.1764706 C43.2710526,12.7058824 42.7381579,13.0235294 42.0986842,13.0235294 L42.0986842,13.0235294 Z" id="Shape" sketch:type="MSShapeGroup"></path>
                <path d="M31.4407895,16.5176471 C31.2276316,16.5176471 31.0144737,16.5176471 30.8013158,16.4117647 L11.5105263,7.41176471 C10.7644737,6.98823529 10.3381579,6.14117647 10.7644737,5.29411765 C11.1907895,4.55294118 12.0434211,4.12941176 12.8960526,4.55294118 L32.1868421,13.5529412 C32.9328947,13.9764706 33.3592105,14.8235294 32.9328947,15.6705882 C32.7197368,16.2 32.0802632,16.5176471 31.4407895,16.5176471 L31.4407895,16.5176471 Z" id="Shape" sketch:type="MSShapeGroup"></path>
                <path d="M20.8894737,20.0117647 C20.6763158,20.0117647 20.4631579,20.0117647 20.25,19.9058824 L0.959210526,10.9058824 C0.213157895,10.4823529 -0.213157895,9.63529412 0.213157895,8.78823529 C0.639473684,8.04705882 1.49210526,7.62352941 2.34473684,8.04705882 L21.6355263,17.0470588 C22.3815789,17.4705882 22.8078947,18.3176471 22.3815789,19.1647059 C22.0618421,19.6941176 21.4223684,20.0117647 20.8894737,20.0117647 L20.8894737,20.0117647 Z" id="Shape" sketch:type="MSShapeGroup"></path>
                <path d="M20.8894737,30.6 C20.6763158,30.6 20.4631579,30.6 20.25,30.4941176 L0.959210526,21.4941176 C0.213157895,21.0705882 -0.213157895,20.2235294 0.213157895,19.3764706 C0.639473684,18.6352941 1.49210526,18.2117647 2.34473684,18.6352941 L21.5289474,27.5294118 C22.275,27.9529412 22.7013158,28.8 22.275,29.6470588 C22.0618421,30.2823529 21.4223684,30.6 20.8894737,30.6 L20.8894737,30.6 Z" id="Shape" sketch:type="MSShapeGroup"></path>
                <path d="M20.8894737,41.1882353 C20.6763158,41.1882353 20.4631579,41.1882353 20.25,41.0823529 L0.959210526,31.9764706 C0.213157895,31.5529412 -0.213157895,30.7058824 0.213157895,29.8588235 C0.639473684,29.1176471 1.49210526,28.6941176 2.34473684,29.1176471 L21.5289474,38.1176471 C22.275,38.5411765 22.7013158,39.3882353 22.275,40.2352941 C22.0618421,40.8705882 21.4223684,41.1882353 20.8894737,41.1882353 L20.8894737,41.1882353 Z" id="Shape" sketch:type="MSShapeGroup"></path>
            </g>
        </g>
    </g>
</svg>