<?xml version="1.0" encoding="UTF-8" standalone="no"?>
<svg width="61px" height="72px" viewBox="0 0 61 72" version="1.1" xmlns="http://www.w3.org/2000/svg" xmlns:xlink="http://www.w3.org/1999/xlink" xmlns:sketch="http://www.bohemiancoding.com/sketch/ns">
    <!-- Generator: Sketch 3.3 (11970) - http://www.bohemiancoding.com/sketch -->
    <title>noun_174065_cc</title>
    <desc>Created with Sketch.</desc>
    <defs></defs>
    <g id="Page-1" stroke="none" stroke-width="1" fill="none" fill-rule="evenodd" sketch:type="MSPage">
        <g id="Desktop-HD" sketch:type="MSArtboardGroup" transform="translate(-562.000000, -2344.000000)" fill="#0B4A91">
            <g id="noun_174065_cc" sketch:type="MSLayerGroup" transform="translate(562.000000, 2344.000000)">
                <path d="M58.5045455,12.2769231 L48.430303,12.2769231 L48.430303,2.21538462 C48.430303,1.56923077 48.0606061,0.923076923 47.5060606,0.646153846 C46.9515152,0.369230769 46.2121212,0.369230769 45.6575758,0.830769231 L29.7606061,12.4615385 C29.1136364,12.7384615 28.6515152,13.3846154 28.6515152,14.0307692 L28.6515152,69.7846154 C28.6515152,70.7076923 29.3909091,71.5384615 30.4075758,71.5384615 L30.4075758,71.5384615 L58.4121212,71.5384615 C59.3363636,71.5384615 60.1681818,70.8 60.1681818,69.7846154 L60.1681818,14.0307692 C60.2606061,13.0153846 59.4287879,12.2769231 58.5045455,12.2769231 L58.5045455,12.2769231 Z M32.1636364,14.9538462 L44.9181818,5.63076923 L44.9181818,57.0461538 L32.1636364,66.3692308 L32.1636364,14.9538462 L32.1636364,14.9538462 Z M56.7484848,68.0307692 L35.8606061,68.0307692 L47.6909091,59.3538462 C48.1530303,58.9846154 48.430303,58.5230769 48.430303,57.9692308 L48.430303,15.6923077 L56.7484848,15.6923077 L56.7484848,68.0307692 L56.7484848,68.0307692 Z M11.2757576,14.0307692 C11.2757576,14.9538462 10.5363636,15.7846154 9.51969697,15.7846154 C8.59545455,15.7846154 7.76363636,15.0461538 7.76363636,14.0307692 C7.76363636,13.1076923 8.5030303,12.2769231 9.51969697,12.2769231 C10.4439394,12.2769231 11.2757576,13.0153846 11.2757576,14.0307692 L11.2757576,14.0307692 Z M18.2075758,14.0307692 C18.2075758,14.9538462 17.4681818,15.7846154 16.4515152,15.7846154 C15.5272727,15.7846154 14.6954545,15.0461538 14.6954545,14.0307692 C14.6954545,13.1076923 15.4348485,12.2769231 16.4515152,12.2769231 C17.3757576,12.2769231 18.2075758,13.0153846 18.2075758,14.0307692 L18.2075758,14.0307692 Z M25.1393939,14.0307692 C25.1393939,14.9538462 24.4,15.7846154 23.3833333,15.7846154 C22.4590909,15.7846154 21.6272727,15.0461538 21.6272727,14.0307692 C21.6272727,13.1076923 22.3666667,12.2769231 23.3833333,12.2769231 C24.4,12.2769231 25.1393939,13.0153846 25.1393939,14.0307692 L25.1393939,14.0307692 Z M3.78939394,12.7384615 C4.15909091,13.0153846 4.34393939,13.4769231 4.34393939,13.9384615 C4.34393939,14.4 4.15909091,14.8615385 3.78939394,15.1384615 C3.51212121,15.5076923 3.05,15.6923077 2.58787879,15.6923077 C2.12575758,15.6923077 1.66363636,15.5076923 1.38636364,15.1384615 C1.10909091,14.8615385 0.831818182,14.4 0.831818182,13.9384615 C0.831818182,13.4769231 1.01666667,13.0153846 1.38636364,12.7384615 C1.75606061,12.3692308 2.12575758,12.1846154 2.58787879,12.1846154 C2.95757576,12.2769231 3.41969697,12.4615385 3.78939394,12.7384615 L3.78939394,12.7384615 Z M0.739393939,41.9076923 C0.739393939,40.9846154 1.47878788,40.1538462 2.49545455,40.1538462 C3.51212121,40.1538462 4.25151515,40.8923077 4.25151515,41.9076923 C4.25151515,42.8307692 3.51212121,43.6615385 2.49545455,43.6615385 C1.47878788,43.6615385 0.739393939,42.8307692 0.739393939,41.9076923 L0.739393939,41.9076923 Z M0.739393939,55.8461538 C0.739393939,54.9230769 1.47878788,54.0923077 2.49545455,54.0923077 C3.51212121,54.0923077 4.25151515,54.8307692 4.25151515,55.8461538 C4.25151515,56.7692308 3.51212121,57.6 2.49545455,57.6 C1.47878788,57.6 0.739393939,56.7692308 0.739393939,55.8461538 L0.739393939,55.8461538 Z M0.739393939,62.7692308 C0.739393939,61.8461538 1.47878788,61.0153846 2.49545455,61.0153846 C3.51212121,61.0153846 4.25151515,61.7538462 4.25151515,62.7692308 C4.25151515,63.6923077 3.51212121,64.5230769 2.49545455,64.5230769 C1.47878788,64.5230769 0.739393939,63.7846154 0.739393939,62.7692308 L0.739393939,62.7692308 Z M0.739393939,48.8307692 C0.739393939,47.9076923 1.47878788,47.0769231 2.49545455,47.0769231 C3.51212121,47.0769231 4.25151515,47.9076923 4.25151515,48.8307692 C4.25151515,49.7538462 3.51212121,50.5846154 2.49545455,50.5846154 C1.47878788,50.5846154 0.739393939,49.8461538 0.739393939,48.8307692 L0.739393939,48.8307692 Z M0.739393939,34.8923077 C0.739393939,33.9692308 1.47878788,33.1384615 2.49545455,33.1384615 C3.51212121,33.1384615 4.25151515,33.8769231 4.25151515,34.8923077 C4.25151515,35.8153846 3.51212121,36.6461538 2.49545455,36.6461538 C1.47878788,36.6461538 0.739393939,35.9076923 0.739393939,34.8923077 L0.739393939,34.8923077 Z M0.739393939,27.9692308 C0.739393939,27.0461538 1.47878788,26.2153846 2.49545455,26.2153846 C3.51212121,26.2153846 4.25151515,26.9538462 4.25151515,27.9692308 C4.25151515,28.9846154 3.51212121,29.7230769 2.49545455,29.7230769 C1.47878788,29.7230769 0.739393939,28.8923077 0.739393939,27.9692308 L0.739393939,27.9692308 Z M0.739393939,20.9538462 C0.739393939,20.0307692 1.47878788,19.2 2.49545455,19.2 C3.51212121,19.2 4.25151515,19.9384615 4.25151515,20.9538462 C4.25151515,21.8769231 3.51212121,22.7076923 2.49545455,22.7076923 C1.47878788,22.7076923 0.739393939,21.9692308 0.739393939,20.9538462 L0.739393939,20.9538462 Z M3.78939394,68.4923077 C4.15909091,68.7692308 4.34393939,69.2307692 4.34393939,69.6923077 C4.34393939,70.1538462 4.15909091,70.6153846 3.78939394,70.8923077 C3.51212121,71.1692308 3.05,71.4461538 2.58787879,71.4461538 C2.12575758,71.4461538 1.66363636,71.2615385 1.38636364,70.8923077 C1.10909091,70.5230769 0.831818182,70.1538462 0.831818182,69.6923077 C0.831818182,69.2307692 1.01666667,68.7692308 1.38636364,68.4923077 C1.75606061,68.1230769 2.12575758,67.9384615 2.58787879,67.9384615 C2.95757576,68.0307692 3.41969697,68.2153846 3.78939394,68.4923077 L3.78939394,68.4923077 Z M25.1393939,69.7846154 C25.1393939,70.7076923 24.4,71.5384615 23.3833333,71.5384615 C22.4590909,71.5384615 21.6272727,70.8 21.6272727,69.7846154 C21.6272727,68.8615385 22.3666667,68.0307692 23.3833333,68.0307692 C24.4,68.0307692 25.1393939,68.7692308 25.1393939,69.7846154 L25.1393939,69.7846154 Z M18.2075758,69.7846154 C18.2075758,70.7076923 17.4681818,71.5384615 16.4515152,71.5384615 C15.5272727,71.5384615 14.6954545,70.8 14.6954545,69.7846154 C14.6954545,68.8615385 15.4348485,68.0307692 16.4515152,68.0307692 C17.3757576,68.0307692 18.2075758,68.7692308 18.2075758,69.7846154 L18.2075758,69.7846154 Z M11.2757576,69.7846154 C11.2757576,70.7076923 10.5363636,71.5384615 9.51969697,71.5384615 C8.59545455,71.5384615 7.76363636,70.8 7.76363636,69.7846154 C7.76363636,68.8615385 8.5030303,68.0307692 9.51969697,68.0307692 C10.4439394,68.0307692 11.2757576,68.7692308 11.2757576,69.7846154 L11.2757576,69.7846154 Z" id="Shape" sketch:type="MSShapeGroup"></path>
            </g>
        </g>
    </g>
</svg>