<?xml version="1.0" encoding="UTF-8" standalone="no"?>
<svg width="78px" height="72px" viewBox="0 0 78 72" version="1.1" xmlns="http://www.w3.org/2000/svg" xmlns:xlink="http://www.w3.org/1999/xlink" xmlns:sketch="http://www.bohemiancoding.com/sketch/ns">
    <!-- Generator: Sketch 3.3 (11970) - http://www.bohemiancoding.com/sketch -->
    <title>noun_117078_cc</title>
    <desc>Created with Sketch.</desc>
    <defs></defs>
    <g id="Page-1" stroke="none" stroke-width="1" fill="none" fill-rule="evenodd" sketch:type="MSPage">
        <g id="Desktop-HD" sketch:type="MSArtboardGroup" transform="translate(-562.000000, -2124.000000)" fill="#0B4A91">
            <g id="noun_117078_cc" sketch:type="MSLayerGroup" transform="translate(562.000000, 2124.000000)">
                <path d="M68.1543871,13.1575814 C65.7489677,13.1575814 63.4869677,14.0927442 61.7860645,15.7914419 C61.5529032,16.024186 61.406129,16.3096744 61.3390323,16.6093953 C61.0412903,16.6763721 60.756129,16.8220465 60.5229677,17.0547907 L24.0114194,53.4993488 C23.8394839,53.6709767 23.7078065,53.8769302 23.6230968,54.1046512 L19.2676774,65.9084651 C18.335871,68.4334884 19.2030968,69.8148837 19.8027742,70.4143256 C20.2129032,70.8237209 20.9895484,71.3586977 22.2484516,71.3578605 C22.8305161,71.3578605 23.5165806,71.2431628 24.3167097,70.9493023 L36.1072903,66.6125581 C36.3412903,66.532186 36.5601935,66.399907 36.7472258,66.2132093 L36.7472258,66.2132093 L73.2604516,29.7669767 C73.4869032,29.5409302 73.637871,29.2571163 73.7066452,28.9506977 C74.0052258,28.8837209 74.2903871,28.7380465 74.5235484,28.5061395 C76.2244516,26.8074419 77.1612903,24.5494884 77.1612903,22.1475349 C77.1612903,19.7455814 76.2244516,17.4884651 74.5227097,15.7906047 C72.8218065,14.0927442 70.5598065,13.1575814 68.1543871,13.1575814 L68.1543871,13.1575814 Z M35.5596129,62.6609302 L31.096,58.2036279 C30.4409677,57.5497674 29.3791613,57.5497674 28.724129,58.2036279 C28.0690968,58.8574884 28.0690968,59.9173953 28.724129,60.572093 L32.520129,64.3629767 L23.1559355,67.8072558 C22.6669677,67.9872558 22.3633548,68.0073488 22.2165806,68.0048372 C22.2107097,67.8533023 22.2341935,67.5544186 22.4145161,67.0663256 L22.4153548,67.0663256 L26.6432903,55.6074419 L61.7089032,20.6053953 L69.7009677,28.5823256 L35.5596129,62.6609302 L35.5596129,62.6609302 Z M72.15,26.1376744 C72.124,26.1644651 72.1047097,26.1946047 72.0803871,26.2230698 L64.0715484,18.2293953 C64.0992258,18.2051163 64.1302581,18.1858605 64.1579355,18.159907 C65.2247742,17.0949767 66.6447097,16.5072558 68.1543871,16.5072558 C69.6640645,16.5072558 71.0831613,17.0941395 72.1508387,18.159907 C73.2185161,19.224 73.8064516,20.6405581 73.8064516,22.1475349 C73.8064516,23.6545116 73.2185161,25.071907 72.15,26.1376744 L72.15,26.1376744 Z" id="Shape" sketch:type="MSShapeGroup"></path>
                <path d="M14.3947742,64.6333953 C8.55064516,61.5097674 5.40464516,56.88 5.76277419,51.932093 C6.1796129,46.1586977 11.3326452,40.8030698 19.2089677,37.9557209 C27.9223226,34.8069767 32.9856129,26.7982326 31.5237419,18.4813953 C30.6581935,13.5552558 27.5717419,9.11972093 22.8347097,5.99106977 C17.5390968,2.49404651 10.2230323,0.645488372 1.67741935,0.645488372 C0.751483871,0.645488372 0,1.39562791 0,2.31990698 C0,3.24418605 0.751483871,3.99432558 1.67741935,3.99432558 C12.6997419,3.99432558 26.2641935,7.94009302 28.2192258,19.059907 C29.4127097,25.852186 25.3332258,32.179814 18.0674839,34.8069767 C8.78883871,38.16 2.93883871,44.4717209 2.41632258,51.6901395 C1.95922581,58.016093 5.74767742,63.8095814 12.8112903,67.5853953 C13.0637419,67.720186 13.3346452,67.783814 13.6013548,67.783814 C14.2001935,67.783814 14.7789032,67.4631628 15.0816774,66.8988837 C15.5186452,66.0842791 15.2116774,65.0695814 14.3947742,64.6333953 L14.3947742,64.6333953 Z" id="Shape" sketch:type="MSShapeGroup"></path>
            </g>
        </g>
    </g>
</svg>