<?xml version="1.0" encoding="UTF-8" standalone="no"?>
<svg width="75px" height="76px" viewBox="0 0 75 76" version="1.1" xmlns="http://www.w3.org/2000/svg" xmlns:xlink="http://www.w3.org/1999/xlink" xmlns:sketch="http://www.bohemiancoding.com/sketch/ns">
    <!-- Generator: Sketch 3.3 (11970) - http://www.bohemiancoding.com/sketch -->
    <title>noun_111251_cc</title>
    <desc>Created with Sketch.</desc>
    <defs></defs>
    <g id="Page-1" stroke="none" stroke-width="1" fill="none" fill-rule="evenodd" sketch:type="MSPage">
        <g id="Desktop-HD" sketch:type="MSArtboardGroup" transform="translate(-164.000000, -2122.000000)" stroke="#0A4A91" stroke-width="3">
            <g id="noun_111251_cc" sketch:type="MSLayerGroup" transform="translate(165.000000, 2124.000000)">
                <path d="M4.2386087,35.1641739 C3.1586087,34.178087 2.28834783,32.925913 1.74365217,31.4624348 C-0.103304348,26.5226087 2.40573913,21.0193043 7.34713043,19.1723478 C12.2869565,17.3285217 17.7871304,19.8344348 19.6356522,24.7758261 C20.1725217,26.2158261 20.3415652,27.7043478 20.1897391,29.1349565" id="Shape" sketch:type="MSShapeGroup"></path>
                <path d="M6.07304348,30.9991304 L2.61391304,72" id="Shape" sketch:type="MSShapeGroup"></path>
                <path d="M16.0622609,27.266087 L45.5603478,55.9533913" id="Shape" sketch:type="MSShapeGroup"></path>
                <path d="M3.95373913,10.0987826 L7.34556522,19.173913" id="Shape" sketch:type="MSShapeGroup"></path>
                <path d="M0,56.4824348 L37.3586087,42.5238261" id="Shape" sketch:type="MSShapeGroup"></path>
                <path d="M72,72 L14.0306087,72 L14.0306087,0 L48.4012174,0 L72,22.2166957 L72,72 Z" id="Shape" sketch:type="MSShapeGroup"></path>
                <path d="M48.4012174,0 L48.4012174,22.2166957 L72,22.2166957" id="Shape" sketch:type="MSShapeGroup"></path>
            </g>
        </g>
    </g>
</svg>