<?xml version="1.0" encoding="UTF-8" standalone="no"?>
<svg width="52px" height="72px" viewBox="0 0 52 72" version="1.1" xmlns="http://www.w3.org/2000/svg" xmlns:xlink="http://www.w3.org/1999/xlink" xmlns:sketch="http://www.bohemiancoding.com/sketch/ns">
    <!-- Generator: Sketch 3.3 (11970) - http://www.bohemiancoding.com/sketch -->
    <title>noun_125682_cc</title>
    <desc>Created with Sketch.</desc>
    <defs></defs>
    <g id="Page-1" stroke="none" stroke-width="1" fill="none" fill-rule="evenodd" sketch:type="MSPage">
        <g id="Desktop-HD" sketch:type="MSArtboardGroup" transform="translate(-1027.000000, -2128.000000)" fill="#0B4A91">
            <g id="noun_125682_cc" sketch:type="MSLayerGroup" transform="translate(1027.000000, 2128.000000)">
                <path d="M49.4,10.2857143 L44.2,10.2857143 C44.2,7.44527751 41.8718383,5.14285714 39,5.14285714 L31.2,5.14285714 C31.2,2.30242037 28.8718383,0 26,0 C23.1281617,0 20.8,2.30242037 20.8,5.14285714 L13,5.14285714 C10.1281617,5.14285714 7.8,7.44527751 7.8,10.2857143 L2.6,10.2857143 C1.16400154,10.2857143 0,11.4369246 0,12.8571429 L0,69.4285714 C0,70.8486328 1.16400154,72 2.6,72 L49.4,72 C50.8359985,72 52,70.8486328 52,69.4285714 L52,12.8571429 C52,11.4369246 50.8359985,10.2857143 49.4,10.2857143 L49.4,10.2857143 Z M10.4,10.2857143 C10.4,8.86785017 11.5663818,7.71428571 13,7.71428571 L20.8,7.71428571 L23.4,7.71428571 L23.4,5.14285714 C23.4,3.72499303 24.5663818,2.57142857 26,2.57142857 C27.4336182,2.57142857 28.6,3.72499303 28.6,5.14285714 L28.6,7.71428571 L31.2,7.71428571 L39,7.71428571 C40.4336182,7.71428571 41.6,8.86785017 41.6,10.2857143 L41.6,12.8571429 L10.4,12.8571429 L10.4,10.2857143 L10.4,10.2857143 Z M49.4,69.4285714 L2.6,69.4285714 L2.6,12.8571429 L7.8,12.8571429 L7.8,14.1428571 C7.8,14.8528877 8.3820802,15.4285714 9.1,15.4285714 L42.9,15.4285714 C43.6179198,15.4285714 44.2,14.8528877 44.2,14.1428571 L44.2,12.8571429 L49.4,12.8571429 L49.4,69.4285714 L49.4,69.4285714 Z" id="Shape" sketch:type="MSShapeGroup"></path>
                <path d="M40.3,25.7142857 L27.3,25.7142857 C26.5820802,25.7142857 26,26.2898123 26,27 C26,27.7100306 26.5820802,28.2857143 27.3,28.2857143 L40.3,28.2857143 C41.0179198,28.2857143 41.6,27.7100306 41.6,27 C41.6,26.2898123 41.0179198,25.7142857 40.3,25.7142857 L40.3,25.7142857 Z" id="Shape" sketch:type="MSShapeGroup"></path>
                <path d="M18.4183594,26.2868302 L14.096875,32.696568 L12.6191406,31.2338168 C12.1113281,30.7315846 11.2886717,30.7315846 10.7808594,31.2338168 C10.2730472,31.7360489 10.2730469,32.5496651 10.7808594,33.051897 L13.3808594,35.6233256 C13.6246094,35.8656529 13.9572267,36 14.3,36 C14.3431642,36 14.3863281,35.9974887 14.4269531,35.9937221 C14.8154297,35.9560548 15.1658203,35.7476284 15.3816406,35.4274555 L20.5816406,27.7131698 C20.9802733,27.1217913 20.8177733,26.3244978 20.2210936,25.9302456 C19.6294922,25.5410157 18.8195311,25.6929408 18.4183594,26.2868302 L18.4183594,26.2868302 Z" id="Shape" sketch:type="MSShapeGroup"></path>
                <path d="M40.3,33.4285714 L22.1,33.4285714 C21.3820802,33.4285714 20.8,34.004098 20.8,34.7142857 C20.8,35.4243163 21.3820802,36 22.1,36 L40.3,36 C41.0179198,36 41.6,35.4243163 41.6,34.7142857 C41.6,34.004098 41.0179198,33.4285714 40.3,33.4285714 L40.3,33.4285714 Z" id="Shape" sketch:type="MSShapeGroup"></path>
                <path d="M40.3,48.8571429 L27.3,48.8571429 C26.5820802,48.8571429 26,49.4326695 26,50.1428571 C26,50.8528877 26.5820802,51.4285714 27.3,51.4285714 L40.3,51.4285714 C41.0179198,51.4285714 41.6,50.8528877 41.6,50.1428571 C41.6,49.4326695 41.0179198,48.8571429 40.3,48.8571429 L40.3,48.8571429 Z" id="Shape" sketch:type="MSShapeGroup"></path>
                <path d="M18.4183594,49.4296874 L14.096875,55.8394251 L12.6191406,54.3766739 C12.1113281,53.8744418 11.2886717,53.8744418 10.7808594,54.3766739 C10.2730472,54.8789061 10.2730469,55.6925223 10.7808594,56.1947541 L13.3808594,58.7661827 C13.6246094,59.00851 13.9572267,59.1428571 14.3,59.1428571 C14.3431642,59.1428571 14.3863281,59.1403459 14.4269531,59.1365793 C14.8154297,59.0989119 15.1658203,58.8904856 15.3816406,58.5703126 L20.5816406,50.8560269 C20.9802733,50.2646485 20.8177733,49.4673549 20.2210936,49.0731027 C19.6294922,48.6826172 18.8195311,48.8370536 18.4183594,49.4296874 L18.4183594,49.4296874 Z" id="Shape" sketch:type="MSShapeGroup"></path>
                <path d="M40.3,56.5714286 L22.1,56.5714286 C21.3820802,56.5714286 20.8,57.1469552 20.8,57.8571429 C20.8,58.5671734 21.3820802,59.1428571 22.1,59.1428571 L40.3,59.1428571 C41.0179198,59.1428571 41.6,58.5671734 41.6,57.8571429 C41.6,57.1469552 41.0179198,56.5714286 40.3,56.5714286 L40.3,56.5714286 Z" id="Shape" sketch:type="MSShapeGroup"></path>
            </g>
        </g>
    </g>
</svg>