<?xml version="1.0" encoding="UTF-8" standalone="no"?>
<svg width="72px" height="72px" viewBox="0 0 72 72" version="1.1" xmlns="http://www.w3.org/2000/svg" xmlns:xlink="http://www.w3.org/1999/xlink" xmlns:sketch="http://www.bohemiancoding.com/sketch/ns">
    <!-- Generator: Sketch 3.3 (11970) - http://www.bohemiancoding.com/sketch -->
    <title>noun_117841_cc</title>
    <desc>Created with Sketch.</desc>
    <defs></defs>
    <g id="Page-1" stroke="none" stroke-width="1" fill="none" fill-rule="evenodd" sketch:type="MSPage">
        <g id="Desktop-HD" sketch:type="MSArtboardGroup" transform="translate(-1027.000000, -2344.000000)" fill="#0B4A91">
            <g id="noun_117841_cc" sketch:type="MSLayerGroup" transform="translate(1027.000000, 2344.000000)">
                <path d="M68.9873919,54.4411795 C66.9792482,52.4328786 64.3469238,51.4284143 61.7147565,51.4284143 L61.7141289,51.4284143 L30.1918423,19.906128 C30.6212508,18.4884207 30.8571429,16.9864329 30.8571429,15.4285714 C30.8571429,6.90757534 23.9495675,0 15.4285714,0 C13.1660157,0 11.0239956,0.498936343 9.08804751,1.3737618 L18,10.2857143 L18,18 L10.2857143,18 L1.3737618,9.08804751 C0.498936343,11.0239956 0,13.1660157 0,15.4285714 C0,23.9495675 6.90757534,30.8571429 15.4285714,30.8571429 C16.9864329,30.8571429 18.4884207,30.6212508 19.906128,30.1918423 L51.4285714,61.7142857 C51.4285714,64.3466098 52.4328789,66.9789342 54.4411795,68.9873919 C56.4496372,70.9956926 59.0819616,72 61.7142857,72 C64.3466098,72 66.9790911,70.9956926 68.9873919,68.9873919 C73.0041503,64.9704765 73.0041503,58.4579381 68.9873919,54.4411795 L68.9873919,54.4411795 Z M2.57142857,15.4285714 C2.57142857,14.9495675 2.59810971,14.4737025 2.65115803,14.0019182 L8.4674772,19.8182373 C8.9496198,20.3005371 9.60377709,20.5714286 10.2857143,20.5714286 L18,20.5714286 C19.4202183,20.5714286 20.5714286,19.4200614 20.5714286,18 L20.5714286,10.2857143 C20.5714286,9.60362023 20.3005371,8.9496198 19.8182373,8.46732009 L14.0019182,2.65100091 C14.4737025,2.5979526 14.9495675,2.57142857 15.4285714,2.57142857 C22.5180489,2.57142857 28.2857143,8.339094 28.2857143,15.4285714 C28.2857143,22.5180489 22.5180489,28.2857143 15.4285714,28.2857143 C8.339094,28.2857143 2.57142857,22.5180489 2.57142857,15.4285714 L2.57142857,15.4285714 Z M67.1691546,67.1689977 C65.7120536,68.6260985 63.7748501,69.4284146 61.7142857,69.4284146 C59.6537213,69.4284146 57.7165179,68.6260988 56.2595737,67.1691546 C54.8024729,65.7120536 54,63.774693 54,61.7142857 C54,61.0321917 53.7291085,60.3781912 53.2468088,59.8958915 L22.4879151,29.1369978 C25.3380824,27.6660854 27.6660854,25.3379255 29.1369978,22.4877582 L59.8965192,53.2466519 C60.3788189,53.7289516 61.0328193,53.9998431 61.7147565,53.9998431 C63.775007,53.9998431 65.7120536,54.8023161 67.1691546,56.2594168 C70.1768973,59.2671595 70.1768973,64.1612548 67.1691546,67.1689977 L67.1691546,67.1689977 Z" id="Shape" sketch:type="MSShapeGroup"></path>
                <path d="M54,55.2857143 C53.6710379,55.2857143 53.3420758,55.1601563 53.0909599,54.9090401 L29.9481027,31.766183 C29.4458706,31.2639508 29.4458706,30.4503346 29.9481027,29.9481027 C30.4503349,29.4458709 31.2639511,29.4458706 31.766183,29.9481027 L54.9090401,53.0909599 C55.4112723,53.593192 55.4112723,54.4068082 54.9090401,54.9090401 C54.6579242,55.1601563 54.3289621,55.2857143 54,55.2857143 L54,55.2857143 Z" id="Shape" sketch:type="MSShapeGroup"></path>
                <path d="M61.7142857,59.1428571 C63.1344255,59.1428571 64.2857143,60.2941361 64.2857143,61.7142857 C64.2857143,63.1344353 63.1344255,64.2857143 61.7142857,64.2857143 C60.2941459,64.2857143 59.1428571,63.1344353 59.1428571,61.7142857 C59.1428571,60.2941361 60.2941459,59.1428571 61.7142857,59.1428571 L61.7142857,59.1428571 Z M61.7142857,56.5714286 C58.8785181,56.5714286 56.5714286,58.8785133 56.5714286,61.7142857 C56.5714286,64.5500582 58.8785181,66.8571429 61.7142857,66.8571429 C64.5500533,66.8571429 66.8571429,64.5500582 66.8571429,61.7142857 C66.8571429,58.8785133 64.5500533,56.5714286 61.7142857,56.5714286 L61.7142857,56.5714286 L61.7142857,56.5714286 Z" id="Shape" sketch:type="MSShapeGroup"></path>
            </g>
        </g>
    </g>
</svg>