<?xml version="1.0" encoding="UTF-8" standalone="no"?>
<svg width="72px" height="76px" viewBox="0 0 72 76" version="1.1" xmlns="http://www.w3.org/2000/svg" xmlns:xlink="http://www.w3.org/1999/xlink" xmlns:sketch="http://www.bohemiancoding.com/sketch/ns">
    <!-- Generator: Sketch 3.3 (11970) - http://www.bohemiancoding.com/sketch -->
    <title>noun_178773_cc</title>
    <desc>Created with Sketch.</desc>
    <defs></defs>
    <g id="Page-1" stroke="none" stroke-width="1" fill="none" fill-rule="evenodd" sketch:type="MSPage">
        <g id="Desktop-HD" sketch:type="MSArtboardGroup" transform="translate(-164.000000, -3129.000000)" fill="#0B4A91">
            <g id="noun_178773_cc" sketch:type="MSLayerGroup" transform="translate(164.000000, 3129.000000)">
                <path d="M69.3,19.4 L58.9,19.4 C62.8,15.8 63.7,10.7 61.1,6.2 C58.2,1.2 51.9,-0.5 46.7,2.3 C41.1,5.3 37.8,10.7 36,14.9 C34.2,10.7 30.9,5.3 25.3,2.3 L25.3,2.3 C20.1,-0.5 13.8,1.2 10.9,6.2 C8.3,10.7 9.2,15.7 13.1,19.4 L2.8,19.4 C1.7,19.4 0.8,20.3 0.8,21.4 L0.8,73.6 C0.8,74.7 1.7,75.6 2.8,75.6 L69.3,75.6 C70.4,75.6 71.3,74.7 71.3,73.6 L71.3,21.4 C71.3,20.3 70.4,19.4 69.3,19.4 L69.3,19.4 Z M67.3,36.3 L43,36.3 L43,23.4 L67.3,23.4 L67.3,36.3 L67.3,36.3 Z M28.5,36.3 L4.7,36.3 L4.7,23.4 L28.5,23.4 L28.5,36.3 L28.5,36.3 Z M4.7,40.3 L28.5,40.3 L28.5,71.6 L4.7,71.6 L4.7,40.3 L4.7,40.3 Z M32.5,23.5 L32.5,23.5 C34.1,23.5 35.3,23.5 35.9,23.4 C36.5,23.4 37.6,23.4 38.9,23.5 L38.9,71.7 L32.5,71.7 L32.5,23.5 L32.5,23.5 Z M42.9,40.3 L67.2,40.3 L67.2,71.6 L42.9,71.6 L42.9,40.3 L42.9,40.3 Z M48.5,5.9 C51.8,4.1 55.8,5.2 57.6,8.3 C59.5,11.5 58.5,15 55,17.4 C53.2,18.7 47.6,19.3 42.4,19.4 L38.5,19.4 C39.7,15.8 42.6,9.1 48.5,5.9 L48.5,5.9 Z M16.9,17.4 C13.5,15 12.5,11.5 14.3,8.3 C15.5,6.2 17.7,5.1 20,5.1 C21.1,5.1 22.3,5.4 23.4,6 L23.4,6 C29.3,9.2 32.2,15.9 33.4,19.5 L29.8,19.5 C24.4,19.2 18.7,18.7 16.9,17.4 L16.9,17.4 Z" id="Shape" sketch:type="MSShapeGroup"></path>
            </g>
        </g>
    </g>
</svg>