<?xml version="1.0" encoding="UTF-8" standalone="no"?>
<svg width="75px" height="74px" viewBox="0 0 75 74" version="1.1" xmlns="http://www.w3.org/2000/svg" xmlns:xlink="http://www.w3.org/1999/xlink" xmlns:sketch="http://www.bohemiancoding.com/sketch/ns">
    <!-- Generator: Sketch 3.3 (11970) - http://www.bohemiancoding.com/sketch -->
    <title>noun_162201_cc</title>
    <desc>Created with Sketch.</desc>
    <defs></defs>
    <g id="Page-1" stroke="none" stroke-width="1" fill="none" fill-rule="evenodd" sketch:type="MSPage">
        <g id="Desktop-HD" sketch:type="MSArtboardGroup" transform="translate(-163.000000, -3481.000000)" stroke-width="2" stroke="#0B4A91" fill="#0B4A91">
            <g id="noun_162201_cc" sketch:type="MSLayerGroup" transform="translate(164.000000, 3482.000000)">
                <g id="Group" transform="translate(0.802198, 0.000000)" sketch:type="MSShapeGroup">
                    <g id="Shape">
                        <path d="M42.3198841,71.9998376 C40.7104297,71.9998376 39.2093409,71.1832419 38.3316152,69.77418 C37.8486743,68.9989353 37.0145038,68.5360819 36.0991462,68.5360819 C35.1841371,68.5360819 34.3492697,68.9989353 33.8663289,69.77418 C32.8192602,71.4556721 30.8840124,72.293812 28.9372661,71.9067109 C26.9901713,71.5206522 25.5239266,70.0087341 25.2016177,68.0555067 C25.0528329,67.154819 24.4594358,66.4087633 23.6137668,66.0595383 C22.7684461,65.7103134 21.8196381,65.8194245 21.0757141,66.3514278 C19.4631237,67.5050865 17.3543518,67.5408777 15.7034329,66.4407322 C14.0528624,65.3405866 13.2782754,63.3842319 13.7298564,61.4567186 C13.9382248,60.5678455 13.6761964,59.6522159 13.0291392,59.0065841 C12.3820822,58.3612998 11.464634,58.1006842 10.572622,58.3074392 C8.64051023,58.7598679 6.67808404,57.9860132 5.57491614,56.3396174 C4.47209672,54.693569 4.50728938,52.5905745 5.6644658,50.9817072 C6.19793071,50.2401689 6.30734159,49.2943078 5.95715722,48.4509556 C5.60697285,47.6079509 4.85886749,47.0161796 3.95570544,46.8678024 C1.99641517,46.5463765 0.48069178,45.0838015 0.0935725391,43.1416938 C-0.293546702,41.200281 0.545850465,39.2706827 2.23231051,38.2261352 C3.00968498,37.7445175 3.47380993,36.9126324 3.47380993,35.9997826 C3.47380993,35.086933 3.00968498,34.2550478 2.23231051,33.7734301 C0.545850465,32.7288826 -0.293546702,30.7992844 0.0935725391,28.8578716 C0.48069178,26.9157638 1.99676362,25.4531888 3.95570544,25.1317629 C4.85886749,24.9833857 5.60697285,24.3916145 5.95715722,23.5486097 C6.30734159,22.7052575 6.19793071,21.7593965 5.6644658,21.0178581 C4.50728938,19.4089909 4.47209672,17.3059963 5.57526462,15.6599479 C6.67808404,14.0138995 8.63911649,13.2400449 10.5729705,13.6921261 C11.4635886,13.8995762 12.3824306,13.638613 13.0294877,12.9929812 C13.6765448,12.3476969 13.9385733,11.4317198 13.7302049,10.5428467 C13.277927,8.6160284 14.0528624,6.6596736 15.7034329,5.55952808 C17.3540034,4.45973008 19.4631237,4.49482632 21.0757141,5.6488324 C21.8189412,6.1801408 22.7677492,6.28959936 23.6134183,5.94072192 C24.4590874,5.59149696 25.0524845,4.84544128 25.2012692,3.94475359 C25.5235783,1.99152622 26.9898228,0.479608008 28.9369176,0.093549368 C30.8840124,-0.294246712 32.8189117,0.544240688 33.8659804,2.2260803 L33.8659804,2.2260803 C34.3489213,3.00132496 35.1834402,3.46417834 36.0987978,3.46417834 C37.0141553,3.46417834 37.8483259,3.00132496 38.3312667,2.2260803 C39.3786838,0.544588176 41.311144,-0.292161784 43.2603295,0.09320188 C45.2074243,0.47926052 46.6740173,1.99117874 46.9963263,3.94475359 C47.1451111,4.84544128 47.7385081,5.59149696 48.5838288,5.94072192 C49.4294979,6.2902944 50.3783059,6.18048832 51.121533,5.6488324 C52.7348202,4.49482632 54.8435922,4.45973008 56.4941627,5.55952808 C58.1447332,6.6596736 58.9193202,8.6160284 58.4673906,10.5435417 C58.2590222,11.4324147 58.5210508,12.3480444 59.1684562,12.9936762 C59.8158618,13.639308 60.7343553,13.8999237 61.6253219,13.6928211 C63.5567368,13.2403923 65.51986,14.014247 66.6230278,15.660643 C67.7258472,17.3066914 67.6906546,19.4096858 66.5334782,21.018553 C66.0000132,21.7600914 65.8906024,22.7059525 66.2407868,23.5493047 C66.5909712,24.3923094 67.3390765,24.9840806 68.2422386,25.1324578 C70.2011803,25.4538838 71.7172522,26.9164588 72.1043714,28.858219 C72.4911423,30.7999794 71.6517451,32.7295776 69.9656335,33.7737776 C69.188259,34.2553953 68.724134,35.0872804 68.724134,36.0001302 C68.724134,36.9129798 69.188259,37.744865 69.9656335,38.2264827 C71.6517451,39.2710302 72.4911423,41.2006284 72.1043714,43.1420412 C71.7172522,45.0838015 70.2011803,46.5463765 68.2422386,46.8678024 C67.3390765,47.0161796 66.5909712,47.6079509 66.2407868,48.4509556 C65.8906024,49.2943078 66.0000132,50.2401689 66.5334782,50.9817072 C67.6906546,52.5905745 67.7258472,54.693569 66.6230278,56.3396174 C65.51986,57.9853182 63.5584791,58.759173 61.6253219,58.3074392 C60.7343553,58.1003366 59.8158618,58.3609522 59.1684562,59.0065841 C58.5210508,59.6522159 58.2593706,60.5678455 58.4673906,61.4567186 C58.9193202,63.3842319 58.1447332,65.3405866 56.4941627,66.4407322 C54.844289,67.5405302 52.7348202,67.5054339 51.121533,66.3514278 C50.3779575,65.819772 49.4294979,65.7103134 48.5838288,66.0595383 C47.7385081,66.4087633 47.1451111,67.154819 46.9963263,68.0555067 C46.6740173,70.0090815 45.2074243,71.5209998 43.2603295,71.9070584 C42.9453377,71.9692586 42.630346,71.9994901 42.3198841,71.9998376 L42.3198841,71.9998376 L42.3198841,71.9998376 Z M36.0987978,66.4508093 C37.742051,66.4508093 39.2407007,67.2819994 40.1076248,68.673687 C40.8153108,69.8106662 41.9906063,70.0323632 42.8526521,69.8617468 C43.7160918,69.6904355 44.7157724,69.037159 44.9338971,67.7163589 C45.2004554,66.0998469 46.2659915,64.759935 47.7841541,64.1327201 C49.3023165,63.505505 51.0058502,63.7018355 52.3407321,64.6567312 C53.4310077,65.4371882 54.6010765,65.193947 55.3331534,64.7064219 C56.0648819,64.218897 56.7373753,63.2337698 56.43214,61.9306916 C56.0582616,60.3350289 56.52831,58.6907179 57.6900162,57.531847 C58.8520708,56.3733237 60.5008991,55.9035205 62.1009455,56.2774171 C63.4089974,56.5814686 64.3954371,55.9108178 64.8843014,55.1814414 C65.3731658,54.4520651 65.6170753,53.284507 64.8344742,52.1972186 C63.8766067,50.8656464 63.6800853,49.1667799 64.3090234,47.6531242 C64.9379615,46.1394686 66.2812061,45.0765042 67.9025075,44.8106763 C69.2269361,44.5931491 69.8820073,43.5962074 70.0537893,42.7351334 C70.2252228,41.8744067 70.0025683,40.7033738 68.8624656,39.9976266 C67.4666063,39.1330777 66.6334811,37.6385338 66.6334811,35.9997826 C66.6334811,34.3610315 67.4669547,32.8664877 68.8624656,32.0019387 C70.0022199,31.2961915 70.2252228,30.1251586 70.0537893,29.264432 C69.8820073,28.4033579 69.2269361,27.4064162 67.9025075,27.188889 C66.2815545,26.923061 64.9379615,25.8604442 64.3090234,24.346441 C63.6800853,22.8324379 63.8766067,21.1339189 64.8344742,19.8023467 C65.6167269,18.7150582 65.3731658,17.5478477 64.8843014,16.8181238 C64.3954371,16.0884001 63.4089974,15.4180966 62.1009455,15.7221482 C60.5008991,16.0967398 58.8520708,15.6262417 57.6900162,14.4677182 C56.52831,13.3088474 56.0579131,11.6645364 56.43214,10.0688737 C56.7373753,8.76579552 56.0645335,7.7806684 55.3331534,7.29314336 C54.6010765,6.80527088 53.4306592,6.56237712 52.3407321,7.34283408 C51.0055018,8.2984248 49.3009228,8.49371272 47.7841541,7.86684528 C46.26634,7.23963032 45.2004554,5.90006592 44.9338971,4.2832064 C44.7157724,2.96240636 43.7160918,2.30912982 42.8526521,2.13781846 C41.9899093,1.96685461 40.8153108,2.18855165 40.1076248,3.32587831 C39.2407007,4.71791336 37.742051,5.548756 36.0987978,5.548756 C34.4555445,5.548756 32.9568948,4.71756584 32.0903192,3.32587831 C31.3822847,2.18889914 30.2083831,1.96789707 29.3449434,2.13781846 C28.4818522,2.30912982 27.4821716,2.96240636 27.2643953,4.2832064 C26.9974885,5.8997184 25.9319524,7.23963032 24.41379,7.86684528 C22.8959759,8.49406024 21.1920937,8.29807728 19.8572118,7.34283408 C18.7669363,6.56272456 17.5965191,6.80596584 16.865139,7.29314336 C16.1337589,7.78032088 15.4605687,8.76579552 15.7661525,10.0688737 C16.1400309,11.6645364 15.6696339,13.3088474 14.5079278,14.4677182 C13.3462216,15.6262417 11.6966965,16.0960448 10.0973469,15.7221482 C8.7903404,15.4177491 7.80250689,16.0887475 7.3136425,16.8181238 C6.82477818,17.5478477 6.58086866,18.7150582 7.36346973,19.8023467 C8.32133722,21.1339189 8.5178586,22.8327854 7.88892052,24.346441 C7.25998244,25.8600967 5.91673792,26.923061 4.29543656,27.188889 C2.97135633,27.4064162 2.31593663,28.4033579 2.14450309,29.264432 C1.97306955,30.1251586 2.19572409,31.2961915 3.33547839,32.0019387 C4.73133769,32.8664877 5.56481134,34.3610315 5.56481134,35.9997826 C5.56481134,37.6385338 4.73133769,39.1330777 3.33547839,39.9976266 C2.19572409,40.7033738 1.97272111,41.8744067 2.14450309,42.7351334 C2.31628507,43.5962074 2.97135633,44.5931491 4.29578495,44.8106763 C5.91708632,45.0765042 7.26033084,46.1391211 7.889269,47.6531242 C8.51820707,49.1671274 8.3216857,50.8656464 7.3638182,52.1972186 C6.58156553,53.284507 6.82512666,54.4517176 7.31399097,55.1814414 C7.80250689,55.9111652 8.78929506,56.5811212 10.0973469,56.2774171 C11.6977418,55.9042155 13.3462216,56.3733237 14.5082762,57.531847 C15.6699824,58.6907179 16.1407277,60.3350289 15.7665009,61.9306916 C15.4609171,63.2337698 16.1341074,64.2192444 16.8654875,64.7064219 C17.5968676,65.1935994 18.7669363,65.4371882 19.8575603,64.6567312 C21.1931391,63.701488 22.8966728,63.505505 24.4144868,64.1327201 C25.9326493,64.759935 26.9981855,66.0994994 27.2650922,67.7163589 C27.4828685,69.037159 28.482549,69.6904355 29.3456403,69.8617468 C30.20908,70.0316682 31.3829816,69.8106662 32.091016,68.673687 C32.9568948,67.2819994 34.4555445,66.4508093 36.0987978,66.4508093 L36.0987978,66.4508093 L36.0987978,66.4508093 Z M44.8502711,50.0441859 C41.9104646,50.0441859 39.5187575,47.6590315 39.5187575,44.7272793 C39.5187575,41.795527 41.9104646,39.4103727 44.8502711,39.4103727 C47.7900776,39.4103727 50.1817845,41.795527 50.1817845,44.7272793 C50.1817845,47.6590315 47.7900776,50.0441859 44.8502711,50.0441859 L44.8502711,50.0441859 L44.8502711,50.0441859 Z M44.8502711,41.4956454 C43.0631112,41.4956454 41.6094105,42.9453633 41.6094105,44.7276268 C41.6094105,46.5098903 43.0631112,47.9596082 44.8502711,47.9596082 C46.6374309,47.9596082 48.0911316,46.5098903 48.0911316,44.7276268 C48.0911316,42.9453633 46.6374309,41.4956454 44.8502711,41.4956454 L44.8502711,41.4956454 L44.8502711,41.4956454 Z M22.3224401,49.7387443 C21.9140659,49.3318365 21.9140659,48.6716102 22.3224401,48.2647023 L48.3974122,22.260821 C48.8057864,21.8535656 49.4671297,21.8535656 49.8755039,22.260821 C50.283878,22.6677289 50.283878,23.3279551 49.8755039,23.734863 L23.8005317,49.7387443 C23.5963446,49.9423721 23.3287411,50.0441859 23.0614859,50.0441859 C22.7938824,50.0441859 22.5262788,49.9423721 22.3224401,49.7387443 Z M27.3473245,32.5891926 C24.407518,32.5891926 22.0161594,30.2040382 22.0161594,27.272286 C22.0161594,24.3405338 24.4078665,21.9553794 27.3473245,21.9553794 C30.2867825,21.9553794 32.6784895,24.3405338 32.6784895,27.272286 C32.6784895,30.2040382 30.2867825,32.5891926 27.3473245,32.5891926 L27.3473245,32.5891926 L27.3473245,32.5891926 Z M27.3473245,24.0403046 C25.5605131,24.0403046 24.1068124,25.4900225 24.1068124,27.272286 C24.1068124,29.0545495 25.5605131,30.5042674 27.3473245,30.5042674 C29.1341359,30.5042674 30.5878366,29.0545495 30.5878366,27.272286 C30.5878366,25.4900225 29.1341359,24.0403046 27.3473245,24.0403046 L27.3473245,24.0403046 L27.3473245,24.0403046 Z"></path>
                    </g>
                </g>
            </g>
        </g>
    </g>
</svg>