<?xml version="1.0" encoding="UTF-8" standalone="no"?>
<svg width="73px" height="72px" viewBox="0 0 73 72" version="1.1" xmlns="http://www.w3.org/2000/svg" xmlns:xlink="http://www.w3.org/1999/xlink" xmlns:sketch="http://www.bohemiancoding.com/sketch/ns">
    <!-- Generator: Sketch 3.3 (11970) - http://www.bohemiancoding.com/sketch -->
    <title>noun_135770_cc</title>
    <desc>Created with Sketch.</desc>
    <defs></defs>
    <g id="Page-1" stroke="none" stroke-width="1" fill="none" fill-rule="evenodd" sketch:type="MSPage">
        <g id="Desktop-HD" sketch:type="MSArtboardGroup" transform="translate(-164.000000, -3305.000000)">
            <g id="noun_135770_cc" sketch:type="MSLayerGroup" transform="translate(164.000000, 3305.000000)">
                <path d="M0.525204331,54.9691838 C-0.382026934,53.7052888 -0.0842792282,51.949714 1.18964133,51.0496225 C2.46356188,50.1515136 4.23206335,50.4459268 5.13929462,51.7088305 C6.64302045,53.8044178 8.90310538,56.302469 11.1292191,56.3044516 C13.3593294,56.3044516 15.6264084,53.8064004 17.1361292,51.7098218 C20.4603125,47.0923922 24.0332849,44.7519562 27.760127,44.7519562 C31.4669861,44.7549301 35.0129814,47.0646361 38.3071901,51.6196144 C38.3301706,51.6483618 38.352152,51.6790918 38.3741333,51.7088305 C39.8778592,53.8044178 42.1379441,56.302469 44.3660561,56.3044516 C46.5981648,56.3044516 48.8652438,53.8044178 50.3759637,51.7058566 C53.7031444,47.091401 57.2761169,44.7519562 60.9989624,44.7519562 C64.7327985,44.7569126 68.2967786,47.0973487 71.6049754,51.7098218 C72.5112076,52.9737167 72.2134598,54.7283003 70.9395393,55.6283917 C69.667617,56.5255093 67.8971173,56.23407 66.989886,54.9681925 C65.4871593,52.8735964 63.2280735,50.3745539 61.002959,50.3725713 C58.7698512,50.3725713 56.4997747,52.8716138 54.9860574,54.9711664 C51.6658707,59.5846307 48.0938974,61.9240755 44.3680544,61.9240755 C40.6611954,61.9220929 37.1171984,59.6123868 33.824988,55.0583999 C33.8020075,55.0296525 33.7800261,54.9989225 33.7580447,54.9691838 C32.2533198,52.8735964 29.9922357,50.3735626 27.7631245,50.3725713 C25.5290175,50.3725713 23.2599402,52.8726051 21.7492203,54.9721576 C18.425037,59.5876046 14.855062,61.9240755 11.1312174,61.9240755 C7.40037871,61.9211016 3.83440031,59.5816568 0.525204331,54.9691838 Z M11.1312174,44.8163901 L11.1252225,44.8163901 C7.40037871,44.8134162 3.83440031,42.4739714 0.525204331,37.8605071 C-0.382026934,36.5966121 -0.0842792282,34.8420286 1.18964133,33.9419371 C2.46356188,33.0408544 4.23206335,33.3372501 5.13929462,34.6011451 C6.64302045,36.6967324 8.90310538,39.1947836 11.1292191,39.1957749 L11.1312174,39.1957749 C13.3603286,39.1957749 15.6284067,36.6957411 17.1391267,34.5971799 C17.1391267,34.5961886 17.1401258,34.5951973 17.141125,34.594206 C20.4613116,29.9827242 24.0332849,27.6442708 27.7591279,27.6442708 L27.7641236,27.6442708 C31.4659869,27.6462534 35.0119822,29.9569507 38.3061909,34.5119289 C38.3291714,34.5416676 38.3511528,34.5714064 38.3731342,34.6011451 C39.87686,36.6967324 42.1369449,39.1947836 44.365057,39.1957749 L44.3670553,39.1957749 C46.5971656,39.1957749 48.8642446,36.6957411 50.3749645,34.5981712 C50.3759637,34.5961886 50.3769628,34.5951973 50.377962,34.5932147 C53.7021453,29.9827242 57.2751177,27.6442708 60.9979632,27.6442708 L61.0079547,27.6442708 C64.7317994,27.6482359 68.2957795,29.9896633 71.6039763,34.6021363 C72.5102084,35.8660313 72.2124607,37.6206149 70.9385401,38.5207063 C69.6666179,39.4188152 67.8961181,39.1253933 66.9888868,37.8605071 C65.4861602,35.7649197 63.2270744,33.2668685 61.0019598,33.2648859 L60.9979632,33.2648859 C58.768852,33.2648859 56.4987756,35.7639284 54.9850582,37.8634809 C54.9850582,37.8634809 54.9850582,37.8634809 54.984059,37.8634809 C51.6648715,42.4769453 48.0928982,44.8163901 44.3670553,44.8163901 L44.3610604,44.8163901 C40.6601963,44.8144075 37.1161992,42.5047014 33.8239889,37.9507145 C33.8010083,37.9209758 33.779027,37.8912371 33.7570456,37.8614984 C32.2523206,35.7649197 29.9912365,33.2658772 27.7621253,33.2648859 L27.760127,33.2648859 C25.5290175,33.2648859 23.2619385,35.7629371 21.7512186,37.8605071 C21.7502195,37.8614984 21.7492203,37.8624897 21.7482212,37.8644722 C18.4280345,42.4779366 14.8560612,44.8163901 11.1312174,44.8163901 L11.1312174,44.8163901 Z M11.1312174,27.7087046 L11.1252225,27.7087046 C7.40037871,27.7067221 3.83440031,25.366286 0.525204331,20.7538129 C-0.382026934,19.489918 -0.0842792282,17.7353344 1.18964133,16.835243 C2.46356188,15.9351515 4.23206335,16.230556 5.13929462,17.4944509 C6.64302045,19.5900383 8.90310538,22.0870982 11.1292191,22.0890808 L11.1312174,22.0890808 C13.3583303,22.0890808 15.6254093,19.5930122 17.13513,17.4964335 C17.1361292,17.4944509 17.1371283,17.4934596 17.1381275,17.4914771 C20.4593133,12.8770214 24.0322858,10.5365854 27.7591279,10.5365854 L27.7641236,10.5365854 C31.4659869,10.5385679 35.0119822,12.8492653 38.3061909,17.4042435 C38.3291714,17.4339822 38.3511528,17.4637209 38.3731342,17.4934596 C39.87686,19.5880557 42.1369449,22.0861069 44.365057,22.0880895 L44.3670553,22.0880895 C46.5961665,22.0880895 48.8632455,19.5900383 50.3729662,17.4924684 C50.3739654,17.4914771 50.3749645,17.4904858 50.3759637,17.4894945 C53.700147,12.8760301 57.2741186,10.5365854 60.9979632,10.5365854 L61.0079547,10.5365854 C64.7317994,10.5405505 68.2957795,12.8819779 71.6039763,17.4944509 C72.5102084,18.7593372 72.2124607,20.5129294 70.9385401,21.4130209 C69.6636204,22.3121211 67.8961181,22.0177079 66.9888868,20.7528217 C65.4861602,18.6572343 63.2270744,16.1591831 61.0019598,16.1562092 L60.9979632,16.1562092 C58.768852,16.1562092 56.4967773,18.6582256 54.9830599,20.7577781 C54.9820607,20.7587694 54.9810616,20.760752 54.9800624,20.7617433 C51.6618741,25.3702512 48.0899008,27.7077134 44.3670553,27.7077134 L44.3610604,27.7077134 C40.6601963,27.7057308 37.1161992,25.3950334 33.8239889,20.8420378 C33.8010083,20.8122991 33.779027,20.7825604 33.7570456,20.7528217 C32.2523206,18.656243 29.9902374,16.1572005 27.7621253,16.1562092 L27.760127,16.1562092 C25.5280184,16.1562092 23.2599402,18.6572343 21.7492203,20.7557955 C21.7482212,20.7567868 21.7482212,20.7577781 21.747222,20.7587694 C18.4270354,25.3702512 14.855062,27.7087046 11.1312174,27.7087046 L11.1312174,27.7087046 Z" id="Shape" stroke="#FFFFFF" fill="#0B4A91" sketch:type="MSShapeGroup"></path>
                <rect id="Rectangle-52" stroke="#0B4A91" stroke-width="4" sketch:type="MSShapeGroup" x="0" y="0" width="72.1204819" height="72" rx="8"></rect>
            </g>
        </g>
    </g>
</svg>